G04*
G04 #@! TF.GenerationSoftware,Altium Limited,Altium Designer,24.3.1 (35)*
G04*
G04 Layer_Physical_Order=1*
G04 Layer_Color=255*
%FSAX25Y25*%
%MOIN*%
G70*
G04*
G04 #@! TF.SameCoordinates,734BC349-05AC-4729-8693-C9A60C11ED16*
G04*
G04*
G04 #@! TF.FilePolarity,Positive*
G04*
G01*
G75*
%ADD18R,0.09843X0.06693*%
%ADD19R,0.05512X0.04724*%
%ADD20R,0.04724X0.05512*%
%ADD21R,0.09449X0.12992*%
%ADD22R,0.09449X0.03937*%
%ADD23R,0.09843X0.09843*%
%ADD24R,0.03937X0.05906*%
%ADD25R,0.08858X0.03937*%
%ADD26C,0.04000*%
%ADD27C,0.06500*%
%ADD28C,0.05000*%
%ADD29C,0.05906*%
%ADD30R,0.05906X0.05906*%
%ADD31C,0.12000*%
%ADD32O,0.10000X0.06600*%
%ADD33R,0.09843X0.07874*%
%ADD34C,0.06000*%
%ADD35R,0.06000X0.06000*%
%ADD36C,0.07000*%
%ADD37C,0.08500*%
%ADD38R,0.06000X0.09000*%
%ADD39O,0.06000X0.09000*%
%ADD40R,0.09843X0.09843*%
%ADD41O,0.16000X0.10000*%
%ADD42O,0.10000X0.16000*%
%ADD43C,0.05000*%
G36*
X0284474Y0404500D02*
Y0003026D01*
X0003026D01*
X0003026Y0408474D01*
X0284474D01*
Y0404500D01*
D02*
G37*
%LPC*%
G36*
X0240000Y0403029D02*
X0237500D01*
Y0397500D01*
X0245980D01*
X0245913Y0398176D01*
X0245570Y0399307D01*
X0245013Y0400350D01*
X0244263Y0401263D01*
X0243350Y0402013D01*
X0242307Y0402570D01*
X0241176Y0402913D01*
X0240000Y0403029D01*
D02*
G37*
G36*
X0236500D02*
X0234000D01*
X0232824Y0402913D01*
X0231693Y0402570D01*
X0230650Y0402013D01*
X0229737Y0401263D01*
X0228987Y0400350D01*
X0228430Y0399307D01*
X0228087Y0398176D01*
X0228020Y0397500D01*
X0236500D01*
Y0403029D01*
D02*
G37*
G36*
X0245980Y0396500D02*
X0237500D01*
Y0390971D01*
X0240000D01*
X0241176Y0391087D01*
X0242307Y0391430D01*
X0243350Y0391987D01*
X0244263Y0392737D01*
X0245013Y0393651D01*
X0245570Y0394693D01*
X0245913Y0395824D01*
X0245980Y0396500D01*
D02*
G37*
G36*
X0236500D02*
X0228020D01*
X0228087Y0395824D01*
X0228430Y0394693D01*
X0228987Y0393651D01*
X0229737Y0392737D01*
X0230650Y0391987D01*
X0231693Y0391430D01*
X0232824Y0391087D01*
X0234000Y0390971D01*
X0236500D01*
Y0396500D01*
D02*
G37*
G36*
X0178921Y0395705D02*
X0173500D01*
Y0390283D01*
X0178921D01*
Y0395705D01*
D02*
G37*
G36*
X0172500D02*
X0167079D01*
Y0390283D01*
X0172500D01*
Y0395705D01*
D02*
G37*
G36*
X0193807Y0386524D02*
X0188583D01*
Y0384055D01*
X0193807D01*
Y0386524D01*
D02*
G37*
G36*
X0187583D02*
X0182358D01*
Y0384055D01*
X0187583D01*
Y0386524D01*
D02*
G37*
G36*
X0178921Y0389283D02*
X0173500D01*
Y0383862D01*
X0178921D01*
Y0389283D01*
D02*
G37*
G36*
X0172500D02*
X0167079D01*
Y0383862D01*
X0172500D01*
Y0389283D01*
D02*
G37*
G36*
X0164756Y0384362D02*
X0161500D01*
Y0381500D01*
X0164756D01*
Y0384362D01*
D02*
G37*
G36*
X0160500D02*
X0157244D01*
Y0381500D01*
X0160500D01*
Y0384362D01*
D02*
G37*
G36*
X0193807Y0383055D02*
X0188583D01*
Y0380587D01*
X0193807D01*
Y0383055D01*
D02*
G37*
G36*
X0187583D02*
X0182358D01*
Y0380587D01*
X0187583D01*
Y0383055D01*
D02*
G37*
G36*
X0252500Y0385980D02*
Y0377500D01*
X0258029D01*
Y0380000D01*
X0257913Y0381176D01*
X0257570Y0382307D01*
X0257013Y0383349D01*
X0256263Y0384263D01*
X0255349Y0385013D01*
X0254307Y0385570D01*
X0253176Y0385913D01*
X0252500Y0385980D01*
D02*
G37*
G36*
X0251500D02*
X0250824Y0385913D01*
X0249693Y0385570D01*
X0248651Y0385013D01*
X0247737Y0384263D01*
X0246987Y0383349D01*
X0246430Y0382307D01*
X0246087Y0381176D01*
X0245971Y0380000D01*
Y0377500D01*
X0251500D01*
Y0385980D01*
D02*
G37*
G36*
X0258029Y0376500D02*
X0252500D01*
Y0368020D01*
X0253176Y0368087D01*
X0254307Y0368430D01*
X0255349Y0368987D01*
X0256263Y0369737D01*
X0257013Y0370651D01*
X0257570Y0371693D01*
X0257913Y0372824D01*
X0258029Y0374000D01*
Y0376500D01*
D02*
G37*
G36*
X0251500D02*
X0245971D01*
Y0374000D01*
X0246087Y0372824D01*
X0246430Y0371693D01*
X0246987Y0370651D01*
X0247737Y0369737D01*
X0248651Y0368987D01*
X0249693Y0368430D01*
X0250824Y0368087D01*
X0251500Y0368020D01*
Y0376500D01*
D02*
G37*
G36*
X0206795Y0345847D02*
X0201374D01*
Y0342000D01*
X0206795D01*
Y0345847D01*
D02*
G37*
G36*
X0200374D02*
X0194953D01*
Y0342000D01*
X0200374D01*
Y0345847D01*
D02*
G37*
G36*
X0056921Y0258437D02*
X0042079D01*
Y0245563D01*
X0056921D01*
Y0258437D01*
D02*
G37*
G36*
Y0238437D02*
X0042079D01*
Y0225563D01*
X0056921D01*
Y0238437D01*
D02*
G37*
G36*
X0077420Y0217250D02*
X0076091D01*
X0074787Y0216991D01*
X0073558Y0216482D01*
X0072453Y0215743D01*
X0071512Y0214803D01*
X0070774Y0213697D01*
X0070265Y0212469D01*
X0070006Y0211165D01*
Y0209835D01*
X0070265Y0208531D01*
X0070774Y0207303D01*
X0071512Y0206197D01*
X0072453Y0205257D01*
X0073558Y0204518D01*
X0074787Y0204009D01*
X0076091Y0203750D01*
X0077420D01*
X0078724Y0204009D01*
X0079953Y0204518D01*
X0081058Y0205257D01*
X0081999Y0206197D01*
X0082737Y0207303D01*
X0083246Y0208531D01*
X0083505Y0209835D01*
Y0211165D01*
X0083246Y0212469D01*
X0082737Y0213697D01*
X0081999Y0214803D01*
X0081058Y0215743D01*
X0079953Y0216482D01*
X0078724Y0216991D01*
X0077420Y0217250D01*
D02*
G37*
G36*
X0248420Y0216750D02*
X0247091D01*
X0245787Y0216491D01*
X0244558Y0215982D01*
X0243453Y0215243D01*
X0242512Y0214303D01*
X0241774Y0213197D01*
X0241265Y0211969D01*
X0241005Y0210665D01*
Y0209335D01*
X0241265Y0208031D01*
X0241774Y0206803D01*
X0242512Y0205697D01*
X0243453Y0204757D01*
X0244558Y0204018D01*
X0245787Y0203509D01*
X0247091Y0203250D01*
X0248420D01*
X0249724Y0203509D01*
X0250953Y0204018D01*
X0252058Y0204757D01*
X0252999Y0205697D01*
X0253737Y0206803D01*
X0254246Y0208031D01*
X0254505Y0209335D01*
Y0210665D01*
X0254246Y0211969D01*
X0253737Y0213197D01*
X0252999Y0214303D01*
X0252058Y0215243D01*
X0250953Y0215982D01*
X0249724Y0216491D01*
X0248420Y0216750D01*
D02*
G37*
G36*
X0163420D02*
X0162091D01*
X0160787Y0216491D01*
X0159558Y0215982D01*
X0158453Y0215243D01*
X0157512Y0214303D01*
X0156774Y0213197D01*
X0156265Y0211969D01*
X0156006Y0210665D01*
Y0209335D01*
X0156265Y0208031D01*
X0156774Y0206803D01*
X0157512Y0205697D01*
X0158453Y0204757D01*
X0159558Y0204018D01*
X0160787Y0203509D01*
X0162091Y0203250D01*
X0163420D01*
X0164724Y0203509D01*
X0165953Y0204018D01*
X0167058Y0204757D01*
X0167999Y0205697D01*
X0168737Y0206803D01*
X0169246Y0208031D01*
X0169506Y0209335D01*
Y0210665D01*
X0169246Y0211969D01*
X0168737Y0213197D01*
X0167999Y0214303D01*
X0167058Y0215243D01*
X0165953Y0215982D01*
X0164724Y0216491D01*
X0163420Y0216750D01*
D02*
G37*
G36*
X0029420D02*
X0028091D01*
X0026787Y0216491D01*
X0025558Y0215982D01*
X0024453Y0215243D01*
X0023512Y0214303D01*
X0022774Y0213197D01*
X0022265Y0211969D01*
X0022005Y0210665D01*
Y0209335D01*
X0022265Y0208031D01*
X0022774Y0206803D01*
X0023512Y0205697D01*
X0024453Y0204757D01*
X0025558Y0204018D01*
X0026787Y0203509D01*
X0028091Y0203250D01*
X0029420D01*
X0030724Y0203509D01*
X0031953Y0204018D01*
X0033058Y0204757D01*
X0033999Y0205697D01*
X0034737Y0206803D01*
X0035246Y0208031D01*
X0035506Y0209335D01*
Y0210665D01*
X0035246Y0211969D01*
X0034737Y0213197D01*
X0033999Y0214303D01*
X0033058Y0215243D01*
X0031953Y0215982D01*
X0030724Y0216491D01*
X0029420Y0216750D01*
D02*
G37*
G36*
X0200420Y0216250D02*
X0199091D01*
X0197787Y0215991D01*
X0196558Y0215482D01*
X0195453Y0214743D01*
X0194512Y0213803D01*
X0193774Y0212697D01*
X0193265Y0211469D01*
X0193006Y0210165D01*
Y0208835D01*
X0193265Y0207531D01*
X0193774Y0206303D01*
X0194512Y0205197D01*
X0195453Y0204257D01*
X0196558Y0203518D01*
X0197787Y0203009D01*
X0199091Y0202750D01*
X0200420D01*
X0201724Y0203009D01*
X0202953Y0203518D01*
X0204058Y0204257D01*
X0204999Y0205197D01*
X0205737Y0206303D01*
X0206246Y0207531D01*
X0206505Y0208835D01*
Y0210165D01*
X0206246Y0211469D01*
X0205737Y0212697D01*
X0204999Y0213803D01*
X0204058Y0214743D01*
X0202953Y0215482D01*
X0201724Y0215991D01*
X0200420Y0216250D01*
D02*
G37*
G36*
X0140107Y0395039D02*
X0042000D01*
X0040825Y0394884D01*
X0039731Y0394431D01*
X0038791Y0393709D01*
X0016791Y0371709D01*
X0016069Y0370769D01*
X0015616Y0369675D01*
X0015461Y0368500D01*
Y0286278D01*
X0015616Y0285103D01*
X0016069Y0284008D01*
X0016791Y0283068D01*
X0039505Y0260353D01*
X0040445Y0259632D01*
X0041540Y0259179D01*
X0042715Y0259024D01*
X0057063D01*
X0058238Y0259179D01*
X0059332Y0259632D01*
X0060272Y0260353D01*
X0074758Y0274839D01*
X0090461D01*
X0090995Y0274909D01*
X0096327D01*
Y0268020D01*
X0111599D01*
X0111806Y0267520D01*
X0109838Y0265551D01*
X0109116Y0264611D01*
X0108663Y0263517D01*
X0108508Y0262342D01*
Y0248183D01*
X0108663Y0247009D01*
X0109116Y0245914D01*
X0109838Y0244974D01*
X0118974Y0235838D01*
X0119914Y0235117D01*
X0121009Y0234663D01*
X0122183Y0234508D01*
X0211079D01*
Y0223563D01*
X0225921D01*
Y0235755D01*
X0226029Y0235838D01*
X0230183Y0239992D01*
X0230288Y0239985D01*
X0230683Y0239815D01*
Y0217972D01*
X0206859Y0194148D01*
X0206381Y0194293D01*
X0206246Y0194969D01*
X0205737Y0196197D01*
X0204999Y0197303D01*
X0204058Y0198243D01*
X0202953Y0198982D01*
X0201724Y0199491D01*
X0200420Y0199750D01*
X0199091D01*
X0197787Y0199491D01*
X0196558Y0198982D01*
X0195453Y0198243D01*
X0194512Y0197303D01*
X0193774Y0196197D01*
X0193265Y0194969D01*
X0193006Y0193665D01*
Y0192335D01*
X0193265Y0191031D01*
X0193774Y0189803D01*
X0194157Y0189230D01*
X0193921Y0188789D01*
X0168219D01*
X0168060Y0189289D01*
X0168737Y0190303D01*
X0169246Y0191531D01*
X0169506Y0192835D01*
Y0194165D01*
X0169246Y0195469D01*
X0168737Y0196697D01*
X0167999Y0197803D01*
X0167058Y0198743D01*
X0165953Y0199482D01*
X0164724Y0199991D01*
X0163420Y0200250D01*
X0162091D01*
X0160787Y0199991D01*
X0159558Y0199482D01*
X0158453Y0198743D01*
X0157512Y0197803D01*
X0156774Y0196697D01*
X0156265Y0195469D01*
X0156006Y0194165D01*
Y0192835D01*
X0156265Y0191531D01*
X0156774Y0190303D01*
X0157451Y0189289D01*
X0157292Y0188789D01*
X0141886D01*
X0121505Y0209169D01*
Y0210165D01*
X0121246Y0211469D01*
X0120737Y0212697D01*
X0119999Y0213803D01*
X0119058Y0214743D01*
X0117953Y0215482D01*
X0116724Y0215991D01*
X0115420Y0216250D01*
X0114091D01*
X0112787Y0215991D01*
X0111558Y0215482D01*
X0110453Y0214743D01*
X0109512Y0213803D01*
X0108774Y0212697D01*
X0108265Y0211469D01*
X0108005Y0210165D01*
Y0208835D01*
X0108265Y0207531D01*
X0108774Y0206303D01*
X0109512Y0205197D01*
X0110453Y0204257D01*
X0111558Y0203518D01*
X0112787Y0203009D01*
X0114091Y0202750D01*
X0115087D01*
X0118859Y0198978D01*
X0118540Y0198589D01*
X0117953Y0198982D01*
X0116724Y0199491D01*
X0115420Y0199750D01*
X0114091D01*
X0112787Y0199491D01*
X0111558Y0198982D01*
X0110453Y0198243D01*
X0109512Y0197303D01*
X0108774Y0196197D01*
X0108265Y0194969D01*
X0108005Y0193665D01*
Y0192335D01*
X0108265Y0191031D01*
X0108774Y0189803D01*
X0109512Y0188697D01*
X0110453Y0187757D01*
X0111558Y0187018D01*
X0112787Y0186509D01*
X0114091Y0186250D01*
X0115420D01*
X0116724Y0186509D01*
X0117953Y0187018D01*
X0119058Y0187757D01*
X0119999Y0188697D01*
X0120737Y0189803D01*
X0121246Y0191031D01*
X0121505Y0192335D01*
Y0193665D01*
X0121246Y0194969D01*
X0120737Y0196197D01*
X0120345Y0196785D01*
X0120733Y0197104D01*
X0136796Y0181041D01*
X0137736Y0180319D01*
X0138831Y0179866D01*
X0140006Y0179711D01*
X0203380D01*
X0204555Y0179866D01*
X0205649Y0180319D01*
X0206589Y0181041D01*
X0238432Y0212883D01*
X0239153Y0213823D01*
X0239606Y0214918D01*
X0239761Y0216092D01*
X0239761Y0216092D01*
Y0315278D01*
X0239606Y0316453D01*
X0239153Y0317547D01*
X0238432Y0318487D01*
X0228709Y0328209D01*
X0227769Y0328931D01*
X0226675Y0329384D01*
X0225500Y0329539D01*
X0217610D01*
X0217353Y0330039D01*
X0217370Y0330063D01*
X0225421D01*
Y0342937D01*
X0210579D01*
Y0338192D01*
X0206795D01*
Y0341000D01*
X0200874D01*
X0194953D01*
Y0338192D01*
X0192547D01*
Y0347346D01*
X0190169D01*
Y0354537D01*
X0190589Y0354957D01*
X0220000D01*
X0221305Y0355129D01*
X0222522Y0355632D01*
X0223566Y0356434D01*
X0230227Y0363095D01*
X0231029Y0364140D01*
X0231533Y0365356D01*
X0231704Y0366661D01*
Y0368158D01*
X0232329Y0368671D01*
X0233266Y0369813D01*
X0233963Y0371116D01*
X0234391Y0372530D01*
X0234536Y0374000D01*
Y0380000D01*
X0234391Y0381470D01*
X0233963Y0382884D01*
X0233266Y0384187D01*
X0232329Y0385329D01*
X0231187Y0386266D01*
X0229884Y0386963D01*
X0228470Y0387391D01*
X0227000Y0387536D01*
X0225530Y0387391D01*
X0224116Y0386963D01*
X0222813Y0386266D01*
X0221671Y0385329D01*
X0220734Y0384187D01*
X0220037Y0382884D01*
X0219608Y0381470D01*
X0219464Y0380000D01*
Y0374000D01*
X0219608Y0372530D01*
X0220037Y0371116D01*
X0220734Y0369813D01*
X0221611Y0368744D01*
X0218642Y0365774D01*
X0218142Y0365981D01*
Y0383496D01*
X0203693D01*
Y0365543D01*
X0203693Y0365504D01*
X0203598Y0365043D01*
X0195307D01*
Y0369531D01*
X0195307Y0369913D01*
X0195307D01*
Y0370031D01*
X0195307D01*
Y0378969D01*
X0188617D01*
X0188083Y0379039D01*
X0180421D01*
Y0382638D01*
X0165579D01*
Y0378421D01*
X0164756D01*
Y0380500D01*
X0161000D01*
X0157244D01*
Y0380346D01*
X0156782Y0380155D01*
X0155623Y0381314D01*
X0155331Y0381695D01*
X0143316Y0393709D01*
X0142376Y0394431D01*
X0141281Y0394884D01*
X0140107Y0395039D01*
D02*
G37*
G36*
X0077420Y0200750D02*
X0076091D01*
X0074787Y0200491D01*
X0073558Y0199982D01*
X0072453Y0199243D01*
X0071512Y0198303D01*
X0070774Y0197197D01*
X0070265Y0195969D01*
X0070006Y0194665D01*
Y0193335D01*
X0070265Y0192031D01*
X0070774Y0190803D01*
X0071512Y0189697D01*
X0072453Y0188757D01*
X0073558Y0188018D01*
X0074787Y0187509D01*
X0076091Y0187250D01*
X0077420D01*
X0078724Y0187509D01*
X0079953Y0188018D01*
X0081058Y0188757D01*
X0081999Y0189697D01*
X0082737Y0190803D01*
X0083246Y0192031D01*
X0083505Y0193335D01*
Y0194665D01*
X0083246Y0195969D01*
X0082737Y0197197D01*
X0081999Y0198303D01*
X0081058Y0199243D01*
X0079953Y0199982D01*
X0078724Y0200491D01*
X0077420Y0200750D01*
D02*
G37*
G36*
X0248420Y0200250D02*
X0247091D01*
X0245787Y0199991D01*
X0244558Y0199482D01*
X0243453Y0198743D01*
X0242512Y0197803D01*
X0241774Y0196697D01*
X0241265Y0195469D01*
X0241005Y0194165D01*
Y0192835D01*
X0241265Y0191531D01*
X0241774Y0190303D01*
X0242512Y0189197D01*
X0243453Y0188257D01*
X0244558Y0187518D01*
X0245787Y0187009D01*
X0247091Y0186750D01*
X0248420D01*
X0249724Y0187009D01*
X0250953Y0187518D01*
X0252058Y0188257D01*
X0252999Y0189197D01*
X0253737Y0190303D01*
X0254246Y0191531D01*
X0254505Y0192835D01*
Y0194165D01*
X0254246Y0195469D01*
X0253737Y0196697D01*
X0252999Y0197803D01*
X0252058Y0198743D01*
X0250953Y0199482D01*
X0249724Y0199991D01*
X0248420Y0200250D01*
D02*
G37*
G36*
X0029420D02*
X0028091D01*
X0026787Y0199991D01*
X0025558Y0199482D01*
X0024453Y0198743D01*
X0023512Y0197803D01*
X0022774Y0196697D01*
X0022265Y0195469D01*
X0022005Y0194165D01*
Y0192835D01*
X0022265Y0191531D01*
X0022774Y0190303D01*
X0023512Y0189197D01*
X0024453Y0188257D01*
X0025558Y0187518D01*
X0026787Y0187009D01*
X0028091Y0186750D01*
X0029420D01*
X0030724Y0187009D01*
X0031953Y0187518D01*
X0033058Y0188257D01*
X0033999Y0189197D01*
X0034737Y0190303D01*
X0035246Y0191531D01*
X0035506Y0192835D01*
Y0194165D01*
X0035246Y0195469D01*
X0034737Y0196697D01*
X0033999Y0197803D01*
X0033058Y0198743D01*
X0031953Y0199482D01*
X0030724Y0199991D01*
X0029420Y0200250D01*
D02*
G37*
G36*
X0246500Y0176548D02*
X0245064Y0176358D01*
X0243726Y0175804D01*
X0242577Y0174923D01*
X0241793Y0173900D01*
X0241627Y0173857D01*
X0241373D01*
X0241207Y0173900D01*
X0240423Y0174923D01*
X0239274Y0175804D01*
X0237936Y0176358D01*
X0236500Y0176548D01*
X0235064Y0176358D01*
X0233726Y0175804D01*
X0232577Y0174923D01*
X0231696Y0173774D01*
X0231142Y0172436D01*
X0230953Y0171000D01*
Y0168000D01*
X0231142Y0166564D01*
X0231696Y0165226D01*
X0232577Y0164077D01*
X0233726Y0163196D01*
X0235064Y0162642D01*
X0236500Y0162452D01*
X0237936Y0162642D01*
X0239274Y0163196D01*
X0240423Y0164077D01*
X0241207Y0165100D01*
X0241373Y0165143D01*
X0241627D01*
X0241793Y0165100D01*
X0242577Y0164077D01*
X0243726Y0163196D01*
X0245064Y0162642D01*
X0246500Y0162452D01*
X0247936Y0162642D01*
X0249274Y0163196D01*
X0250423Y0164077D01*
X0251304Y0165226D01*
X0251858Y0166564D01*
X0252047Y0168000D01*
Y0171000D01*
X0251858Y0172436D01*
X0251304Y0173774D01*
X0250423Y0174923D01*
X0249274Y0175804D01*
X0247936Y0176358D01*
X0246500Y0176548D01*
D02*
G37*
G36*
X0161500Y0176048D02*
X0160064Y0175858D01*
X0158726Y0175304D01*
X0157577Y0174423D01*
X0156793Y0173400D01*
X0156627Y0173357D01*
X0156373D01*
X0156207Y0173400D01*
X0155423Y0174423D01*
X0154274Y0175304D01*
X0152936Y0175858D01*
X0151500Y0176048D01*
X0150064Y0175858D01*
X0148726Y0175304D01*
X0147577Y0174423D01*
X0146696Y0173274D01*
X0146142Y0171936D01*
X0145952Y0170500D01*
Y0167500D01*
X0146142Y0166064D01*
X0146696Y0164726D01*
X0147577Y0163577D01*
X0148726Y0162696D01*
X0150064Y0162142D01*
X0151500Y0161952D01*
X0152936Y0162142D01*
X0154274Y0162696D01*
X0155423Y0163577D01*
X0156207Y0164600D01*
X0156373Y0164643D01*
X0156627D01*
X0156793Y0164600D01*
X0157577Y0163577D01*
X0158726Y0162696D01*
X0160064Y0162142D01*
X0161500Y0161952D01*
X0162936Y0162142D01*
X0164274Y0162696D01*
X0165423Y0163577D01*
X0166304Y0164726D01*
X0166858Y0166064D01*
X0167048Y0167500D01*
Y0170500D01*
X0166858Y0171936D01*
X0166304Y0173274D01*
X0165423Y0174423D01*
X0164274Y0175304D01*
X0162936Y0175858D01*
X0161500Y0176048D01*
D02*
G37*
G36*
X0075500Y0173047D02*
X0074064Y0172858D01*
X0072726Y0172304D01*
X0071577Y0171423D01*
X0070793Y0170400D01*
X0070627Y0170358D01*
X0070373D01*
X0070207Y0170400D01*
X0069423Y0171423D01*
X0068274Y0172304D01*
X0066936Y0172858D01*
X0065500Y0173047D01*
X0064064Y0172858D01*
X0062726Y0172304D01*
X0061577Y0171423D01*
X0060696Y0170274D01*
X0060142Y0168936D01*
X0059952Y0167500D01*
Y0164500D01*
X0060142Y0163064D01*
X0060696Y0161726D01*
X0061577Y0160577D01*
X0062726Y0159696D01*
X0064064Y0159142D01*
X0065500Y0158952D01*
X0066936Y0159142D01*
X0068274Y0159696D01*
X0069423Y0160577D01*
X0070207Y0161600D01*
X0070373Y0161643D01*
X0070627D01*
X0070793Y0161600D01*
X0071577Y0160577D01*
X0072726Y0159696D01*
X0074064Y0159142D01*
X0075500Y0158952D01*
X0076936Y0159142D01*
X0078274Y0159696D01*
X0079423Y0160577D01*
X0080304Y0161726D01*
X0080858Y0163064D01*
X0081047Y0164500D01*
Y0167500D01*
X0080858Y0168936D01*
X0080304Y0170274D01*
X0079423Y0171423D01*
X0078274Y0172304D01*
X0076936Y0172858D01*
X0075500Y0173047D01*
D02*
G37*
G36*
X0029591Y0173500D02*
X0028409D01*
X0027250Y0173269D01*
X0026158Y0172817D01*
X0025175Y0172160D01*
X0024340Y0171325D01*
X0023683Y0170342D01*
X0023231Y0169250D01*
X0023000Y0168091D01*
Y0166909D01*
X0023231Y0165750D01*
X0023683Y0164658D01*
X0024340Y0163675D01*
X0025175Y0162839D01*
X0026158Y0162183D01*
X0027250Y0161731D01*
X0028409Y0161500D01*
X0029591D01*
X0030750Y0161731D01*
X0031842Y0162183D01*
X0032825Y0162839D01*
X0033661Y0163675D01*
X0034317Y0164658D01*
X0034769Y0165750D01*
X0035000Y0166909D01*
Y0168091D01*
X0034769Y0169250D01*
X0034317Y0170342D01*
X0033661Y0171325D01*
X0032825Y0172160D01*
X0031842Y0172817D01*
X0030750Y0173269D01*
X0029591Y0173500D01*
D02*
G37*
G36*
X0112591Y0173450D02*
X0111409D01*
X0110250Y0173219D01*
X0109158Y0172767D01*
X0108175Y0172110D01*
X0107340Y0171275D01*
X0106683Y0170292D01*
X0106231Y0169200D01*
X0106000Y0168041D01*
Y0166859D01*
X0106231Y0165700D01*
X0106683Y0164608D01*
X0107340Y0163625D01*
X0108175Y0162789D01*
X0109158Y0162133D01*
X0110250Y0161681D01*
X0111409Y0161450D01*
X0112591D01*
X0113750Y0161681D01*
X0114842Y0162133D01*
X0115825Y0162789D01*
X0116660Y0163625D01*
X0117317Y0164608D01*
X0117769Y0165700D01*
X0118000Y0166859D01*
Y0168041D01*
X0117769Y0169200D01*
X0117317Y0170292D01*
X0116660Y0171275D01*
X0115825Y0172110D01*
X0114842Y0172767D01*
X0113750Y0173219D01*
X0112591Y0173450D01*
D02*
G37*
G36*
X0218200Y0173478D02*
X0214800D01*
X0213663Y0173366D01*
X0212570Y0173034D01*
X0211562Y0172496D01*
X0210679Y0171771D01*
X0209954Y0170888D01*
X0209416Y0169880D01*
X0209084Y0168787D01*
X0208972Y0167650D01*
X0209084Y0166513D01*
X0209416Y0165420D01*
X0209954Y0164412D01*
X0210679Y0163529D01*
X0211371Y0162961D01*
X0211407Y0162874D01*
Y0162426D01*
X0211371Y0162339D01*
X0210679Y0161771D01*
X0209954Y0160888D01*
X0209416Y0159880D01*
X0209084Y0158787D01*
X0208972Y0157650D01*
X0209084Y0156513D01*
X0209416Y0155420D01*
X0209954Y0154412D01*
X0210679Y0153529D01*
X0211562Y0152804D01*
X0212570Y0152266D01*
X0213049Y0152120D01*
X0213075Y0151590D01*
X0212631Y0151406D01*
X0211733Y0150717D01*
X0211044Y0149819D01*
X0210611Y0148773D01*
X0210529Y0148150D01*
X0216500D01*
X0222471D01*
X0222389Y0148773D01*
X0221956Y0149819D01*
X0221267Y0150717D01*
X0220369Y0151406D01*
X0219925Y0151590D01*
X0219951Y0152120D01*
X0220430Y0152266D01*
X0221438Y0152804D01*
X0222321Y0153529D01*
X0223046Y0154412D01*
X0223584Y0155420D01*
X0223916Y0156513D01*
X0224028Y0157650D01*
X0223916Y0158787D01*
X0223584Y0159880D01*
X0223046Y0160888D01*
X0222321Y0161771D01*
X0221629Y0162339D01*
X0221593Y0162426D01*
Y0162874D01*
X0221629Y0162961D01*
X0222321Y0163529D01*
X0223046Y0164412D01*
X0223584Y0165420D01*
X0223916Y0166513D01*
X0224028Y0167650D01*
X0223916Y0168787D01*
X0223584Y0169880D01*
X0223046Y0170888D01*
X0222321Y0171771D01*
X0221438Y0172496D01*
X0220430Y0173034D01*
X0219337Y0173366D01*
X0218200Y0173478D01*
D02*
G37*
G36*
X0047200D02*
X0043800D01*
X0042663Y0173366D01*
X0041570Y0173034D01*
X0040562Y0172496D01*
X0039679Y0171771D01*
X0038954Y0170888D01*
X0038416Y0169880D01*
X0038084Y0168787D01*
X0037972Y0167650D01*
X0038084Y0166513D01*
X0038416Y0165420D01*
X0038954Y0164412D01*
X0039679Y0163529D01*
X0040371Y0162961D01*
X0040407Y0162874D01*
Y0162426D01*
X0040371Y0162339D01*
X0039679Y0161771D01*
X0038954Y0160888D01*
X0038416Y0159880D01*
X0038084Y0158787D01*
X0037972Y0157650D01*
X0038084Y0156513D01*
X0038416Y0155420D01*
X0038954Y0154412D01*
X0039679Y0153529D01*
X0040562Y0152804D01*
X0041570Y0152266D01*
X0042049Y0152120D01*
X0042075Y0151590D01*
X0041631Y0151406D01*
X0040733Y0150717D01*
X0040044Y0149819D01*
X0039611Y0148773D01*
X0039529Y0148150D01*
X0045500D01*
X0051471D01*
X0051389Y0148773D01*
X0050956Y0149819D01*
X0050267Y0150717D01*
X0049369Y0151406D01*
X0048925Y0151590D01*
X0048951Y0152120D01*
X0049430Y0152266D01*
X0050438Y0152804D01*
X0051321Y0153529D01*
X0052046Y0154412D01*
X0052584Y0155420D01*
X0052916Y0156513D01*
X0053028Y0157650D01*
X0052916Y0158787D01*
X0052584Y0159880D01*
X0052046Y0160888D01*
X0051321Y0161771D01*
X0050629Y0162339D01*
X0050593Y0162426D01*
Y0162874D01*
X0050629Y0162961D01*
X0051321Y0163529D01*
X0052046Y0164412D01*
X0052584Y0165420D01*
X0052916Y0166513D01*
X0053028Y0167650D01*
X0052916Y0168787D01*
X0052584Y0169880D01*
X0052046Y0170888D01*
X0051321Y0171771D01*
X0050438Y0172496D01*
X0049430Y0173034D01*
X0048337Y0173366D01*
X0047200Y0173478D01*
D02*
G37*
G36*
X0222471Y0147150D02*
X0217000D01*
Y0143313D01*
X0218200D01*
X0219322Y0143461D01*
X0220369Y0143894D01*
X0221267Y0144583D01*
X0221956Y0145481D01*
X0222389Y0146528D01*
X0222471Y0147150D01*
D02*
G37*
G36*
X0216000D02*
X0210529D01*
X0210611Y0146528D01*
X0211044Y0145481D01*
X0211733Y0144583D01*
X0212631Y0143894D01*
X0213678Y0143461D01*
X0214800Y0143313D01*
X0216000D01*
Y0147150D01*
D02*
G37*
G36*
X0051471D02*
X0046000D01*
Y0143313D01*
X0047200D01*
X0048322Y0143461D01*
X0049369Y0143894D01*
X0050267Y0144583D01*
X0050956Y0145481D01*
X0051389Y0146528D01*
X0051471Y0147150D01*
D02*
G37*
G36*
X0045000D02*
X0039529D01*
X0039611Y0146528D01*
X0040044Y0145481D01*
X0040733Y0144583D01*
X0041631Y0143894D01*
X0042678Y0143461D01*
X0043800Y0143313D01*
X0045000D01*
Y0147150D01*
D02*
G37*
G36*
X0247000Y0144969D02*
Y0140000D01*
X0250535D01*
Y0141000D01*
X0250397Y0142044D01*
X0249994Y0143017D01*
X0249353Y0143853D01*
X0248517Y0144494D01*
X0247544Y0144897D01*
X0247000Y0144969D01*
D02*
G37*
G36*
X0162000Y0144469D02*
Y0139500D01*
X0165534D01*
Y0140500D01*
X0165397Y0141544D01*
X0164994Y0142517D01*
X0164353Y0143353D01*
X0163517Y0143994D01*
X0162544Y0144397D01*
X0162000Y0144469D01*
D02*
G37*
G36*
X0076000Y0141469D02*
Y0136500D01*
X0079535D01*
Y0137500D01*
X0079397Y0138544D01*
X0078994Y0139517D01*
X0078353Y0140353D01*
X0077517Y0140994D01*
X0076544Y0141397D01*
X0076000Y0141469D01*
D02*
G37*
G36*
X0250535Y0139000D02*
X0247000D01*
Y0134031D01*
X0247544Y0134103D01*
X0248517Y0134506D01*
X0249353Y0135147D01*
X0249994Y0135983D01*
X0250397Y0136956D01*
X0250535Y0138000D01*
Y0139000D01*
D02*
G37*
G36*
X0242000Y0146500D02*
X0231000D01*
Y0132500D01*
X0242000D01*
Y0137705D01*
X0242500Y0137738D01*
X0242603Y0136956D01*
X0243006Y0135983D01*
X0243647Y0135147D01*
X0244483Y0134506D01*
X0245456Y0134103D01*
X0246000Y0134031D01*
Y0139500D01*
Y0144969D01*
X0245456Y0144897D01*
X0244483Y0144494D01*
X0243647Y0143853D01*
X0243006Y0143017D01*
X0242603Y0142044D01*
X0242500Y0141262D01*
X0242000Y0141295D01*
Y0146500D01*
D02*
G37*
G36*
X0165534Y0138500D02*
X0162000D01*
Y0133531D01*
X0162544Y0133603D01*
X0163517Y0134006D01*
X0164353Y0134647D01*
X0164994Y0135483D01*
X0165397Y0136456D01*
X0165534Y0137500D01*
Y0138500D01*
D02*
G37*
G36*
X0133200Y0173478D02*
X0129800D01*
X0128663Y0173366D01*
X0127570Y0173034D01*
X0126562Y0172496D01*
X0125679Y0171771D01*
X0124954Y0170888D01*
X0124416Y0169880D01*
X0124084Y0168787D01*
X0123972Y0167650D01*
X0124084Y0166513D01*
X0124416Y0165420D01*
X0124954Y0164412D01*
X0125679Y0163529D01*
X0126371Y0162961D01*
X0126407Y0162874D01*
Y0162426D01*
X0126371Y0162339D01*
X0125679Y0161771D01*
X0124954Y0160888D01*
X0124416Y0159880D01*
X0124084Y0158787D01*
X0123972Y0157650D01*
X0124084Y0156513D01*
X0124416Y0155420D01*
X0124954Y0154412D01*
X0125679Y0153529D01*
X0126562Y0152804D01*
X0127570Y0152266D01*
X0128049Y0152120D01*
X0128075Y0151590D01*
X0127631Y0151406D01*
X0126733Y0150717D01*
X0126044Y0149819D01*
X0125611Y0148773D01*
X0125529Y0148150D01*
X0131500D01*
Y0147150D01*
X0125529D01*
X0125611Y0146528D01*
X0126044Y0145481D01*
X0126567Y0144800D01*
X0126321Y0144300D01*
X0123050D01*
X0121549Y0144102D01*
X0120150Y0143523D01*
X0118949Y0142601D01*
X0109502Y0133154D01*
X0108551D01*
X0107050Y0132956D01*
X0105651Y0132377D01*
X0104573Y0131550D01*
X0078908D01*
X0078662Y0132050D01*
X0078994Y0132483D01*
X0079397Y0133456D01*
X0079535Y0134500D01*
Y0135500D01*
X0075500D01*
Y0136000D01*
X0075000D01*
Y0141469D01*
X0074456Y0141397D01*
X0073483Y0140994D01*
X0072647Y0140353D01*
X0072006Y0139517D01*
X0071603Y0138544D01*
X0071500Y0137762D01*
X0071000Y0137795D01*
Y0143000D01*
X0060000D01*
Y0133560D01*
X0059500Y0133151D01*
X0058368Y0133300D01*
X0030598D01*
X0029591Y0133500D01*
X0028409D01*
X0027250Y0133269D01*
X0026158Y0132817D01*
X0025175Y0132160D01*
X0024340Y0131325D01*
X0023683Y0130342D01*
X0023231Y0129250D01*
X0023000Y0128091D01*
Y0126909D01*
X0023231Y0125750D01*
X0023683Y0124658D01*
X0024340Y0123675D01*
X0025175Y0122839D01*
X0026158Y0122183D01*
X0027250Y0121731D01*
X0028409Y0121500D01*
X0029591D01*
X0030598Y0121700D01*
X0055966D01*
X0056017Y0121649D01*
X0057218Y0120727D01*
X0058617Y0120148D01*
X0060118Y0119950D01*
X0106947D01*
X0108448Y0120148D01*
X0109846Y0120727D01*
X0110916Y0121548D01*
X0111409Y0121450D01*
X0112591D01*
X0113750Y0121681D01*
X0114842Y0122133D01*
X0115825Y0122790D01*
X0116660Y0123625D01*
X0117231Y0124479D01*
X0125452Y0132700D01*
X0138692D01*
X0140193Y0132898D01*
X0141592Y0133477D01*
X0142793Y0134399D01*
X0145538Y0137144D01*
X0146000Y0136952D01*
Y0132000D01*
X0157000D01*
Y0137205D01*
X0157500Y0137238D01*
X0157603Y0136456D01*
X0158006Y0135483D01*
X0158647Y0134647D01*
X0159483Y0134006D01*
X0160456Y0133603D01*
X0161000Y0133531D01*
Y0139000D01*
Y0144469D01*
X0160456Y0144397D01*
X0159483Y0143994D01*
X0158647Y0143353D01*
X0158006Y0142517D01*
X0157603Y0141544D01*
X0157500Y0140762D01*
X0157000Y0140795D01*
Y0146000D01*
X0157417Y0146200D01*
X0179550D01*
X0181051Y0146398D01*
X0182450Y0146977D01*
X0183651Y0147899D01*
X0197971Y0162219D01*
X0198825Y0162789D01*
X0199661Y0163625D01*
X0200317Y0164608D01*
X0200769Y0165700D01*
X0201000Y0166859D01*
Y0168041D01*
X0200769Y0169200D01*
X0200317Y0170292D01*
X0199661Y0171275D01*
X0198825Y0172110D01*
X0197842Y0172767D01*
X0196750Y0173219D01*
X0195591Y0173450D01*
X0194409D01*
X0193250Y0173219D01*
X0192158Y0172767D01*
X0191175Y0172110D01*
X0190340Y0171275D01*
X0189769Y0170421D01*
X0177148Y0157800D01*
X0146308D01*
X0144807Y0157602D01*
X0143408Y0157023D01*
X0142207Y0156101D01*
X0138399Y0152293D01*
X0137477Y0151092D01*
X0137143Y0150286D01*
X0136648Y0150221D01*
X0136267Y0150717D01*
X0135369Y0151406D01*
X0134925Y0151590D01*
X0134951Y0152120D01*
X0135430Y0152266D01*
X0136438Y0152804D01*
X0137321Y0153529D01*
X0138046Y0154412D01*
X0138584Y0155420D01*
X0138916Y0156513D01*
X0139028Y0157650D01*
X0138916Y0158787D01*
X0138584Y0159880D01*
X0138046Y0160888D01*
X0137321Y0161771D01*
X0136629Y0162339D01*
X0136593Y0162426D01*
Y0162874D01*
X0136629Y0162961D01*
X0137321Y0163529D01*
X0138046Y0164412D01*
X0138584Y0165420D01*
X0138916Y0166513D01*
X0139028Y0167650D01*
X0138916Y0168787D01*
X0138584Y0169880D01*
X0138046Y0170888D01*
X0137321Y0171771D01*
X0136438Y0172496D01*
X0135430Y0173034D01*
X0134337Y0173366D01*
X0133200Y0173478D01*
D02*
G37*
G36*
X0195591Y0133450D02*
X0194409D01*
X0193250Y0133219D01*
X0192158Y0132767D01*
X0191175Y0132111D01*
X0190340Y0131275D01*
X0189683Y0130292D01*
X0189231Y0129200D01*
X0189000Y0128041D01*
Y0126859D01*
X0189231Y0125700D01*
X0189683Y0124608D01*
X0190340Y0123625D01*
X0191175Y0122790D01*
X0192158Y0122133D01*
X0193250Y0121681D01*
X0194409Y0121450D01*
X0195591D01*
X0196750Y0121681D01*
X0197842Y0122133D01*
X0198825Y0122790D01*
X0199661Y0123625D01*
X0200317Y0124608D01*
X0200769Y0125700D01*
X0201000Y0126859D01*
Y0128041D01*
X0200769Y0129200D01*
X0200317Y0130292D01*
X0199661Y0131275D01*
X0198825Y0132111D01*
X0197842Y0132767D01*
X0196750Y0133219D01*
X0195591Y0133450D01*
D02*
G37*
G36*
X0253065Y0117405D02*
X0251391D01*
X0249749Y0117079D01*
X0248202Y0116438D01*
X0246810Y0115508D01*
X0245626Y0114324D01*
X0244695Y0112932D01*
X0244055Y0111385D01*
X0243728Y0109743D01*
Y0108068D01*
X0244055Y0106426D01*
X0244695Y0104879D01*
X0245626Y0103487D01*
X0246810Y0102303D01*
X0248202Y0101373D01*
X0249749Y0100732D01*
X0251391Y0100406D01*
X0253065D01*
X0254707Y0100732D01*
X0256254Y0101373D01*
X0257646Y0102303D01*
X0258830Y0103487D01*
X0259761Y0104879D01*
X0260401Y0106426D01*
X0260728Y0108068D01*
Y0109743D01*
X0260401Y0111385D01*
X0259761Y0112932D01*
X0258830Y0114324D01*
X0257646Y0115508D01*
X0256254Y0116438D01*
X0254707Y0117079D01*
X0253065Y0117405D01*
D02*
G37*
G36*
X0205065D02*
X0203391D01*
X0201749Y0117079D01*
X0200202Y0116438D01*
X0198810Y0115508D01*
X0197626Y0114324D01*
X0196695Y0112932D01*
X0196055Y0111385D01*
X0195728Y0109743D01*
Y0108068D01*
X0196055Y0106426D01*
X0196695Y0104879D01*
X0197626Y0103487D01*
X0198810Y0102303D01*
X0200202Y0101373D01*
X0201749Y0100732D01*
X0203391Y0100406D01*
X0205065D01*
X0206707Y0100732D01*
X0208254Y0101373D01*
X0209646Y0102303D01*
X0210830Y0103487D01*
X0211761Y0104879D01*
X0212401Y0106426D01*
X0212728Y0108068D01*
Y0109743D01*
X0212401Y0111385D01*
X0211761Y0112932D01*
X0210830Y0114324D01*
X0209646Y0115508D01*
X0208254Y0116438D01*
X0206707Y0117079D01*
X0205065Y0117405D01*
D02*
G37*
G36*
X0170390D02*
X0168716D01*
X0167074Y0117079D01*
X0165527Y0116438D01*
X0164135Y0115508D01*
X0162951Y0114324D01*
X0162020Y0112932D01*
X0161380Y0111385D01*
X0161053Y0109743D01*
Y0108068D01*
X0161380Y0106426D01*
X0162020Y0104879D01*
X0162951Y0103487D01*
X0164135Y0102303D01*
X0165527Y0101373D01*
X0167074Y0100732D01*
X0168716Y0100406D01*
X0170390D01*
X0172032Y0100732D01*
X0173579Y0101373D01*
X0174971Y0102303D01*
X0176155Y0103487D01*
X0177085Y0104879D01*
X0177726Y0106426D01*
X0178053Y0108068D01*
Y0109743D01*
X0177726Y0111385D01*
X0177085Y0112932D01*
X0176155Y0114324D01*
X0174971Y0115508D01*
X0173579Y0116438D01*
X0172032Y0117079D01*
X0170390Y0117405D01*
D02*
G37*
G36*
X0122390D02*
X0120716D01*
X0119074Y0117079D01*
X0117527Y0116438D01*
X0116135Y0115508D01*
X0114951Y0114324D01*
X0114020Y0112932D01*
X0113380Y0111385D01*
X0113053Y0109743D01*
Y0108068D01*
X0113380Y0106426D01*
X0114020Y0104879D01*
X0114951Y0103487D01*
X0116135Y0102303D01*
X0117527Y0101373D01*
X0119074Y0100732D01*
X0120716Y0100406D01*
X0122390D01*
X0124032Y0100732D01*
X0125579Y0101373D01*
X0126971Y0102303D01*
X0128155Y0103487D01*
X0129086Y0104879D01*
X0129726Y0106426D01*
X0130053Y0108068D01*
Y0109743D01*
X0129726Y0111385D01*
X0129086Y0112932D01*
X0128155Y0114324D01*
X0126971Y0115508D01*
X0125579Y0116438D01*
X0124032Y0117079D01*
X0122390Y0117405D01*
D02*
G37*
G36*
X0087715D02*
X0086041D01*
X0084399Y0117079D01*
X0082852Y0116438D01*
X0081459Y0115508D01*
X0080276Y0114324D01*
X0079345Y0112932D01*
X0078705Y0111385D01*
X0078378Y0109743D01*
Y0108068D01*
X0078705Y0106426D01*
X0079345Y0104879D01*
X0080276Y0103487D01*
X0081459Y0102303D01*
X0082852Y0101373D01*
X0084399Y0100732D01*
X0086041Y0100406D01*
X0087715D01*
X0089357Y0100732D01*
X0090904Y0101373D01*
X0092296Y0102303D01*
X0093480Y0103487D01*
X0094411Y0104879D01*
X0095051Y0106426D01*
X0095378Y0108068D01*
Y0109743D01*
X0095051Y0111385D01*
X0094411Y0112932D01*
X0093480Y0114324D01*
X0092296Y0115508D01*
X0090904Y0116438D01*
X0089357Y0117079D01*
X0087715Y0117405D01*
D02*
G37*
G36*
X0039715D02*
X0038041D01*
X0036399Y0117079D01*
X0034852Y0116438D01*
X0033459Y0115508D01*
X0032276Y0114324D01*
X0031345Y0112932D01*
X0030705Y0111385D01*
X0030378Y0109743D01*
Y0108068D01*
X0030705Y0106426D01*
X0031345Y0104879D01*
X0032276Y0103487D01*
X0033459Y0102303D01*
X0034852Y0101373D01*
X0036399Y0100732D01*
X0038041Y0100406D01*
X0039715D01*
X0041357Y0100732D01*
X0042904Y0101373D01*
X0044296Y0102303D01*
X0045480Y0103487D01*
X0046411Y0104879D01*
X0047051Y0106426D01*
X0047378Y0108068D01*
Y0109743D01*
X0047051Y0111385D01*
X0046411Y0112932D01*
X0045480Y0114324D01*
X0044296Y0115508D01*
X0042904Y0116438D01*
X0041357Y0117079D01*
X0039715Y0117405D01*
D02*
G37*
G36*
X0252309Y0069374D02*
X0250635D01*
X0248993Y0069047D01*
X0247446Y0068407D01*
X0246054Y0067476D01*
X0244870Y0066293D01*
X0243939Y0064900D01*
X0243299Y0063353D01*
X0242972Y0061711D01*
Y0060037D01*
X0243299Y0058395D01*
X0243939Y0056848D01*
X0244870Y0055456D01*
X0246054Y0054272D01*
X0247446Y0053341D01*
X0248993Y0052701D01*
X0250635Y0052374D01*
X0252309D01*
X0253951Y0052701D01*
X0255498Y0053341D01*
X0256891Y0054272D01*
X0258074Y0055456D01*
X0259005Y0056848D01*
X0259645Y0058395D01*
X0259972Y0060037D01*
Y0061711D01*
X0259645Y0063353D01*
X0259005Y0064900D01*
X0258074Y0066293D01*
X0256891Y0067476D01*
X0255498Y0068407D01*
X0253951Y0069047D01*
X0252309Y0069374D01*
D02*
G37*
G36*
X0205065D02*
X0203391D01*
X0201749Y0069047D01*
X0200202Y0068407D01*
X0198810Y0067476D01*
X0197626Y0066293D01*
X0196695Y0064900D01*
X0196055Y0063353D01*
X0195728Y0061711D01*
Y0060037D01*
X0196055Y0058395D01*
X0196695Y0056848D01*
X0197626Y0055456D01*
X0198810Y0054272D01*
X0200202Y0053341D01*
X0201749Y0052701D01*
X0203391Y0052374D01*
X0205065D01*
X0206707Y0052701D01*
X0208254Y0053341D01*
X0209646Y0054272D01*
X0210830Y0055456D01*
X0211761Y0056848D01*
X0212401Y0058395D01*
X0212728Y0060037D01*
Y0061711D01*
X0212401Y0063353D01*
X0211761Y0064900D01*
X0210830Y0066293D01*
X0209646Y0067476D01*
X0208254Y0068407D01*
X0206707Y0069047D01*
X0205065Y0069374D01*
D02*
G37*
G36*
X0169634D02*
X0167960D01*
X0166318Y0069047D01*
X0164771Y0068407D01*
X0163379Y0067476D01*
X0162195Y0066293D01*
X0161265Y0064900D01*
X0160624Y0063353D01*
X0160297Y0061711D01*
Y0060037D01*
X0160624Y0058395D01*
X0161265Y0056848D01*
X0162195Y0055456D01*
X0163379Y0054272D01*
X0164771Y0053341D01*
X0166318Y0052701D01*
X0167960Y0052374D01*
X0169634D01*
X0171276Y0052701D01*
X0172823Y0053341D01*
X0174215Y0054272D01*
X0175399Y0055456D01*
X0176330Y0056848D01*
X0176970Y0058395D01*
X0177297Y0060037D01*
Y0061711D01*
X0176970Y0063353D01*
X0176330Y0064900D01*
X0175399Y0066293D01*
X0174215Y0067476D01*
X0172823Y0068407D01*
X0171276Y0069047D01*
X0169634Y0069374D01*
D02*
G37*
G36*
X0122390D02*
X0120716D01*
X0119074Y0069047D01*
X0117527Y0068407D01*
X0116135Y0067476D01*
X0114951Y0066293D01*
X0114020Y0064900D01*
X0113380Y0063353D01*
X0113053Y0061711D01*
Y0060037D01*
X0113380Y0058395D01*
X0114020Y0056848D01*
X0114951Y0055456D01*
X0116135Y0054272D01*
X0117527Y0053341D01*
X0119074Y0052701D01*
X0120716Y0052374D01*
X0122390D01*
X0124032Y0052701D01*
X0125579Y0053341D01*
X0126971Y0054272D01*
X0128155Y0055456D01*
X0129086Y0056848D01*
X0129726Y0058395D01*
X0130053Y0060037D01*
Y0061711D01*
X0129726Y0063353D01*
X0129086Y0064900D01*
X0128155Y0066293D01*
X0126971Y0067476D01*
X0125579Y0068407D01*
X0124032Y0069047D01*
X0122390Y0069374D01*
D02*
G37*
G36*
X0086959D02*
X0085285D01*
X0083643Y0069047D01*
X0082096Y0068407D01*
X0080704Y0067476D01*
X0079520Y0066293D01*
X0078589Y0064900D01*
X0077949Y0063353D01*
X0077622Y0061711D01*
Y0060037D01*
X0077949Y0058395D01*
X0078589Y0056848D01*
X0079520Y0055456D01*
X0080704Y0054272D01*
X0082096Y0053341D01*
X0083643Y0052701D01*
X0085285Y0052374D01*
X0086959D01*
X0088601Y0052701D01*
X0090148Y0053341D01*
X0091540Y0054272D01*
X0092724Y0055456D01*
X0093655Y0056848D01*
X0094295Y0058395D01*
X0094622Y0060037D01*
Y0061711D01*
X0094295Y0063353D01*
X0093655Y0064900D01*
X0092724Y0066293D01*
X0091540Y0067476D01*
X0090148Y0068407D01*
X0088601Y0069047D01*
X0086959Y0069374D01*
D02*
G37*
G36*
X0039715D02*
X0038041D01*
X0036399Y0069047D01*
X0034852Y0068407D01*
X0033459Y0067476D01*
X0032276Y0066293D01*
X0031345Y0064900D01*
X0030705Y0063353D01*
X0030378Y0061711D01*
Y0060037D01*
X0030705Y0058395D01*
X0031345Y0056848D01*
X0032276Y0055456D01*
X0033459Y0054272D01*
X0034852Y0053341D01*
X0036399Y0052701D01*
X0038041Y0052374D01*
X0039715D01*
X0041357Y0052701D01*
X0042904Y0053341D01*
X0044296Y0054272D01*
X0045480Y0055456D01*
X0046411Y0056848D01*
X0047051Y0058395D01*
X0047378Y0060037D01*
Y0061711D01*
X0047051Y0063353D01*
X0046411Y0064900D01*
X0045480Y0066293D01*
X0044296Y0067476D01*
X0042904Y0068407D01*
X0041357Y0069047D01*
X0039715Y0069374D01*
D02*
G37*
G36*
X0228687Y0061500D02*
X0227013D01*
X0225371Y0061173D01*
X0223824Y0060533D01*
X0222432Y0059602D01*
X0221248Y0058418D01*
X0220317Y0057026D01*
X0219677Y0055479D01*
X0219350Y0053837D01*
Y0052163D01*
X0219677Y0050521D01*
X0220317Y0048974D01*
X0221248Y0047582D01*
X0222432Y0046398D01*
X0223824Y0045467D01*
X0225371Y0044827D01*
X0227013Y0044500D01*
X0228687D01*
X0230329Y0044827D01*
X0231876Y0045467D01*
X0233268Y0046398D01*
X0234452Y0047582D01*
X0235383Y0048974D01*
X0236023Y0050521D01*
X0236350Y0052163D01*
Y0053837D01*
X0236023Y0055479D01*
X0235383Y0057026D01*
X0234452Y0058418D01*
X0233268Y0059602D01*
X0231876Y0060533D01*
X0230329Y0061173D01*
X0228687Y0061500D01*
D02*
G37*
G36*
X0146012D02*
X0144338D01*
X0142696Y0061173D01*
X0141149Y0060533D01*
X0139757Y0059602D01*
X0138573Y0058418D01*
X0137642Y0057026D01*
X0137002Y0055479D01*
X0136675Y0053837D01*
Y0052163D01*
X0137002Y0050521D01*
X0137642Y0048974D01*
X0138573Y0047582D01*
X0139757Y0046398D01*
X0141149Y0045467D01*
X0142696Y0044827D01*
X0144338Y0044500D01*
X0146012D01*
X0147654Y0044827D01*
X0149201Y0045467D01*
X0150593Y0046398D01*
X0151777Y0047582D01*
X0152708Y0048974D01*
X0153348Y0050521D01*
X0153675Y0052163D01*
Y0053837D01*
X0153348Y0055479D01*
X0152708Y0057026D01*
X0151777Y0058418D01*
X0150593Y0059602D01*
X0149201Y0060533D01*
X0147654Y0061173D01*
X0146012Y0061500D01*
D02*
G37*
G36*
X0063337D02*
X0061663D01*
X0060021Y0061173D01*
X0058474Y0060533D01*
X0057082Y0059602D01*
X0055898Y0058418D01*
X0054967Y0057026D01*
X0054327Y0055479D01*
X0054000Y0053837D01*
Y0052163D01*
X0054327Y0050521D01*
X0054967Y0048974D01*
X0055898Y0047582D01*
X0057082Y0046398D01*
X0058474Y0045467D01*
X0060021Y0044827D01*
X0061663Y0044500D01*
X0063337D01*
X0064979Y0044827D01*
X0066526Y0045467D01*
X0067918Y0046398D01*
X0069102Y0047582D01*
X0070033Y0048974D01*
X0070673Y0050521D01*
X0071000Y0052163D01*
Y0053837D01*
X0070673Y0055479D01*
X0070033Y0057026D01*
X0069102Y0058418D01*
X0067918Y0059602D01*
X0066526Y0060533D01*
X0064979Y0061173D01*
X0063337Y0061500D01*
D02*
G37*
G36*
X0256131Y0030421D02*
X0241289D01*
Y0015579D01*
X0256131D01*
Y0030421D01*
D02*
G37*
G36*
X0236181D02*
X0221339D01*
Y0015579D01*
X0236181D01*
Y0030421D01*
D02*
G37*
G36*
X0216181D02*
X0201339D01*
Y0015579D01*
X0216181D01*
Y0030421D01*
D02*
G37*
G36*
X0172751D02*
X0157909D01*
Y0015579D01*
X0172751D01*
Y0030421D01*
D02*
G37*
G36*
X0152801D02*
X0137959D01*
Y0015579D01*
X0152801D01*
Y0030421D01*
D02*
G37*
G36*
X0132801D02*
X0117959D01*
Y0015579D01*
X0132801D01*
Y0030421D01*
D02*
G37*
G36*
X0089371D02*
X0074529D01*
Y0015579D01*
X0089371D01*
Y0030421D01*
D02*
G37*
G36*
X0069421D02*
X0054579D01*
Y0015579D01*
X0069421D01*
Y0030421D01*
D02*
G37*
G36*
X0049421D02*
X0034579D01*
Y0015579D01*
X0049421D01*
Y0030421D01*
D02*
G37*
%LPD*%
G36*
X0142958Y0381229D02*
X0142829Y0380746D01*
X0142377Y0380625D01*
X0141123Y0379901D01*
X0140099Y0378877D01*
X0139375Y0377623D01*
X0139000Y0376224D01*
Y0374776D01*
X0139375Y0373377D01*
X0140099Y0372123D01*
X0141123Y0371099D01*
X0142377Y0370375D01*
X0143776Y0370000D01*
X0145224D01*
X0146623Y0370375D01*
X0147877Y0371099D01*
X0148901Y0372123D01*
X0149625Y0373377D01*
X0149727Y0373759D01*
X0150210Y0373888D01*
X0153427Y0370672D01*
X0154367Y0369951D01*
X0155461Y0369498D01*
X0155744Y0369461D01*
Y0368657D01*
X0165579D01*
Y0367795D01*
X0168511D01*
Y0357088D01*
X0168011Y0356880D01*
X0167351Y0357261D01*
X0166500Y0357489D01*
Y0354000D01*
Y0350511D01*
X0167351Y0350739D01*
X0168011Y0351119D01*
X0168511Y0350912D01*
Y0348152D01*
X0168440Y0348029D01*
X0168099Y0346758D01*
Y0345441D01*
X0168440Y0344169D01*
X0169098Y0343029D01*
X0170029Y0342098D01*
X0171169Y0341440D01*
X0172441Y0341099D01*
X0173758D01*
X0175029Y0341440D01*
X0176169Y0342098D01*
X0177100Y0343029D01*
X0177222Y0343240D01*
X0177705Y0343110D01*
Y0339216D01*
X0177498Y0339035D01*
X0142384D01*
X0119343Y0362076D01*
Y0372433D01*
X0119843Y0372567D01*
X0120099Y0372123D01*
X0121123Y0371099D01*
X0122377Y0370375D01*
X0123776Y0370000D01*
X0125224D01*
X0126623Y0370375D01*
X0127877Y0371099D01*
X0128901Y0372123D01*
X0129625Y0373377D01*
X0130000Y0374776D01*
Y0376224D01*
X0129625Y0377623D01*
X0128942Y0378807D01*
X0128676Y0379448D01*
X0127875Y0380492D01*
X0122868Y0385499D01*
X0123059Y0385961D01*
X0138226D01*
X0142958Y0381229D01*
D02*
G37*
G36*
X0169983Y0281895D02*
X0171484D01*
Y0279777D01*
X0175239D01*
X0178995D01*
Y0281895D01*
X0180495D01*
Y0281919D01*
X0200163D01*
X0211079Y0271002D01*
Y0263563D01*
X0223382D01*
Y0256437D01*
X0211079D01*
Y0250086D01*
X0153829D01*
X0153638Y0250548D01*
X0153663Y0250573D01*
X0154183Y0251474D01*
X0154453Y0252480D01*
Y0252500D01*
X0146547D01*
Y0252480D01*
X0146817Y0251474D01*
X0147337Y0250573D01*
X0147362Y0250548D01*
X0147171Y0250086D01*
X0145614D01*
X0145364Y0250519D01*
X0145581Y0250895D01*
X0145953Y0252282D01*
Y0253718D01*
X0145581Y0255105D01*
X0144863Y0256348D01*
X0144736Y0256476D01*
Y0273441D01*
X0144634Y0274214D01*
Y0276257D01*
X0145071Y0276409D01*
X0145134Y0276410D01*
X0150000D01*
Y0279378D01*
X0150500D01*
Y0279878D01*
X0155929D01*
Y0282213D01*
X0155929Y0282347D01*
X0156251Y0282713D01*
X0169983D01*
Y0281895D01*
D02*
G37*
%LPC*%
G36*
X0135027Y0379633D02*
X0135000D01*
Y0376133D01*
X0138500D01*
Y0376160D01*
X0138227Y0377177D01*
X0137701Y0378089D01*
X0136956Y0378834D01*
X0136044Y0379360D01*
X0135027Y0379633D01*
D02*
G37*
G36*
X0134000D02*
X0133973D01*
X0132956Y0379360D01*
X0132044Y0378834D01*
X0131299Y0378089D01*
X0130773Y0377177D01*
X0130500Y0376160D01*
Y0376133D01*
X0134000D01*
Y0379633D01*
D02*
G37*
G36*
X0138500Y0375133D02*
X0135000D01*
Y0371633D01*
X0135027D01*
X0136044Y0371905D01*
X0136956Y0372432D01*
X0137701Y0373177D01*
X0138227Y0374089D01*
X0138500Y0375106D01*
Y0375133D01*
D02*
G37*
G36*
X0134000D02*
X0130500D01*
Y0375106D01*
X0130773Y0374089D01*
X0131299Y0373177D01*
X0132044Y0372432D01*
X0132956Y0371905D01*
X0133973Y0371633D01*
X0134000D01*
Y0375133D01*
D02*
G37*
G36*
X0165500Y0357489D02*
X0164649Y0357261D01*
X0163851Y0356801D01*
X0163199Y0356149D01*
X0162739Y0355351D01*
X0162511Y0354500D01*
X0165500D01*
Y0357489D01*
D02*
G37*
G36*
Y0353500D02*
X0162511D01*
X0162739Y0352649D01*
X0163199Y0351851D01*
X0163851Y0351199D01*
X0164649Y0350739D01*
X0165500Y0350511D01*
Y0353500D01*
D02*
G37*
G36*
X0155929Y0278878D02*
X0151000D01*
Y0276410D01*
X0155929D01*
Y0278878D01*
D02*
G37*
G36*
X0178995Y0278777D02*
X0175739D01*
Y0275915D01*
X0178995D01*
Y0278777D01*
D02*
G37*
G36*
X0174739D02*
X0171484D01*
Y0275915D01*
X0174739D01*
Y0278777D01*
D02*
G37*
G36*
X0151020Y0256953D02*
X0151000D01*
Y0253500D01*
X0154453D01*
Y0253520D01*
X0154183Y0254526D01*
X0153663Y0255427D01*
X0152927Y0256163D01*
X0152026Y0256683D01*
X0151020Y0256953D01*
D02*
G37*
G36*
X0150000D02*
X0149980D01*
X0148974Y0256683D01*
X0148073Y0256163D01*
X0147337Y0255427D01*
X0146817Y0254526D01*
X0146547Y0253520D01*
Y0253500D01*
X0150000D01*
Y0256953D01*
D02*
G37*
%LPD*%
D18*
X0185126Y0341500D02*
D03*
X0200874D02*
D03*
D19*
X0175239Y0286757D02*
D03*
Y0279277D02*
D03*
X0186239Y0310757D02*
D03*
Y0303277D02*
D03*
X0195500Y0310757D02*
D03*
Y0303277D02*
D03*
X0161000Y0373520D02*
D03*
Y0381000D02*
D03*
D20*
X0071242Y0319739D02*
D03*
X0078723D02*
D03*
X0071500Y0334500D02*
D03*
X0078980D02*
D03*
D21*
X0210917Y0374500D02*
D03*
D22*
X0188083Y0365445D02*
D03*
Y0374500D02*
D03*
Y0383555D02*
D03*
D23*
X0173000Y0389784D02*
D03*
Y0375217D02*
D03*
D24*
X0140165Y0273472D02*
D03*
X0132291D02*
D03*
X0124417D02*
D03*
X0116543D02*
D03*
X0108669D02*
D03*
X0100795D02*
D03*
D25*
X0090461Y0279378D02*
D03*
Y0287252D02*
D03*
Y0295126D02*
D03*
Y0303000D02*
D03*
Y0310874D02*
D03*
Y0318748D02*
D03*
Y0326622D02*
D03*
Y0334496D02*
D03*
X0150500D02*
D03*
Y0326622D02*
D03*
Y0318748D02*
D03*
Y0310874D02*
D03*
Y0303000D02*
D03*
Y0295126D02*
D03*
Y0287252D02*
D03*
Y0279378D02*
D03*
D26*
X0222819Y0239047D02*
X0227000Y0243228D01*
X0122183Y0239047D02*
X0222819D01*
X0113047Y0248183D02*
X0122183Y0239047D01*
X0113047Y0262342D02*
X0116512Y0265807D01*
X0113047Y0248183D02*
Y0262342D01*
X0116512Y0265807D02*
Y0273441D01*
X0116543Y0273472D01*
X0127413Y0245547D02*
X0213236D01*
X0215579Y0247890D01*
Y0248063D01*
X0217516Y0250000D01*
X0121453Y0251507D02*
X0127413Y0245547D01*
X0217516Y0250000D02*
X0218500D01*
X0140197Y0253303D02*
X0140500Y0253000D01*
X0130500D02*
Y0253516D01*
X0121453Y0253953D02*
Y0261555D01*
X0120500Y0253000D02*
X0121453Y0253953D01*
X0120500Y0253000D02*
X0121453Y0252047D01*
Y0251507D02*
Y0252047D01*
X0132291Y0255307D02*
Y0273472D01*
X0130500Y0253516D02*
X0132291Y0255307D01*
X0150500Y0253000D02*
Y0279378D01*
X0121453Y0261555D02*
X0124417Y0264520D01*
Y0273472D01*
X0175540Y0286457D02*
X0202043D01*
X0218500Y0270000D01*
X0213236Y0295126D02*
X0215579Y0292783D01*
X0217516Y0290000D02*
X0218500D01*
X0215579Y0291937D02*
X0217516Y0290000D01*
X0215579Y0291937D02*
Y0292783D01*
X0189570Y0295126D02*
X0213236D01*
X0189570D02*
X0194744Y0300300D01*
X0042715Y0263563D02*
X0057063D01*
X0020000Y0286278D02*
X0042715Y0263563D01*
X0020000Y0286278D02*
Y0368500D01*
X0026579Y0299699D02*
Y0360013D01*
Y0299699D02*
X0042715Y0283563D01*
X0063544D01*
X0067233Y0287252D01*
X0090461D01*
X0020000Y0368500D02*
X0042000Y0390500D01*
X0086529D01*
X0039579Y0333013D02*
X0048016Y0341450D01*
X0033079Y0346513D02*
X0048016Y0361450D01*
X0033079Y0312957D02*
X0045598Y0300437D01*
X0039579Y0315649D02*
Y0333013D01*
Y0315649D02*
X0048291Y0306937D01*
X0026579Y0360013D02*
X0048016Y0381450D01*
X0033079Y0312957D02*
Y0346513D01*
X0188083Y0365445D02*
X0188469D01*
X0188500Y0365413D01*
Y0360000D02*
Y0365413D01*
X0173050Y0346149D02*
Y0374450D01*
Y0346149D02*
X0173099Y0346099D01*
X0171981Y0318748D02*
X0172038Y0318691D01*
X0172195D02*
X0172252Y0318748D01*
X0150500D02*
X0171981D01*
X0172038Y0318691D02*
X0172195D01*
X0181620Y0317620D02*
X0181620D01*
X0187500Y0323500D01*
X0150500Y0310874D02*
X0174874D01*
X0178983Y0314984D01*
Y0314984D01*
X0187500Y0323500D02*
X0209192D01*
X0178983Y0314984D02*
X0181620Y0317620D01*
X0162607Y0326622D02*
X0163229Y0326000D01*
X0163500D01*
X0150531Y0326591D02*
X0150563Y0326622D01*
X0162607D01*
X0150469Y0326654D02*
X0150531Y0326591D01*
X0178341Y0333653D02*
X0214169D01*
X0217016Y0336500D01*
X0140504Y0334496D02*
X0177498D01*
X0178341Y0333653D01*
X0173000Y0374500D02*
X0173050Y0374450D01*
X0102500Y0328997D02*
Y0336920D01*
X0083796Y0345000D02*
X0094420D01*
X0102500Y0336920D01*
X0094500Y0354112D02*
X0145581Y0303031D01*
X0094500Y0354112D02*
Y0375500D01*
X0100157Y0326654D02*
X0102500Y0328997D01*
X0090492Y0326654D02*
X0100157D01*
X0150469Y0303031D02*
X0150500Y0303000D01*
X0145581Y0303031D02*
X0150469D01*
X0150500Y0303000D02*
X0185962D01*
X0210692Y0325000D02*
X0225500D01*
X0235222Y0315278D01*
X0209192Y0323500D02*
X0210692Y0325000D01*
X0217016Y0336500D02*
X0218000D01*
X0072878Y0279378D02*
X0090461D01*
X0057063Y0263563D02*
X0072878Y0279378D01*
X0071500Y0334500D02*
Y0334894D01*
X0070608Y0335256D02*
X0071138D01*
X0068265Y0337599D02*
Y0372235D01*
Y0337599D02*
X0070608Y0335256D01*
X0071138D02*
X0071500Y0334894D01*
X0068265Y0372235D02*
X0086529Y0390500D01*
X0071242Y0319739D02*
Y0335151D01*
X0078980Y0334498D02*
X0090459D01*
X0048016Y0381450D02*
X0049000D01*
X0045598Y0300437D02*
X0057016D01*
X0048016Y0361450D02*
X0049000D01*
X0048291Y0306937D02*
X0059708D01*
X0048016Y0341450D02*
X0049000D01*
X0064964Y0310874D02*
X0090461D01*
X0049500Y0315780D02*
Y0320950D01*
X0062401Y0313437D02*
X0064964Y0310874D01*
X0051843Y0313437D02*
X0062401D01*
X0049500Y0315780D02*
X0051843Y0313437D01*
X0063645Y0303000D02*
X0090461D01*
X0062327Y0295126D02*
X0090461D01*
X0059708Y0306937D02*
X0063645Y0303000D01*
X0057016Y0300437D02*
X0062327Y0295126D01*
X0049000Y0321450D02*
X0049500Y0320950D01*
X0087072Y0319739D02*
X0088063Y0318748D01*
X0090461D01*
X0078723Y0319739D02*
X0087072D01*
X0090459Y0334498D02*
X0090461Y0334496D01*
X0204871Y0310629D02*
X0205000Y0310500D01*
X0195629Y0310629D02*
X0204871D01*
X0195500Y0310757D02*
X0195629Y0310629D01*
X0086529Y0390500D02*
X0140107D01*
X0152121Y0378485D01*
Y0378397D02*
Y0378485D01*
Y0378397D02*
X0156636Y0373882D01*
X0160638D01*
X0161000Y0373520D01*
Y0381000D02*
Y0387440D01*
X0163343Y0389784D01*
X0173000D02*
X0182657D01*
X0163343D02*
X0173000D01*
Y0374500D02*
X0188083D01*
X0161362Y0373882D02*
X0172382D01*
X0173000Y0374500D01*
X0161000Y0373520D02*
X0161362Y0373882D01*
X0090461Y0326622D02*
X0090492Y0326654D01*
X0235222Y0216092D02*
Y0315278D01*
X0203380Y0184250D02*
X0235222Y0216092D01*
X0227921Y0244199D02*
Y0307563D01*
X0227000Y0243278D02*
X0227921Y0244199D01*
X0218984Y0316500D02*
X0227921Y0307563D01*
X0227000Y0243228D02*
Y0243278D01*
X0218000Y0316500D02*
X0218984D01*
X0175239Y0286757D02*
X0175540Y0286457D01*
X0174846Y0286757D02*
X0175239D01*
X0140006Y0184250D02*
X0203380D01*
X0114755Y0209500D02*
X0140006Y0184250D01*
X0150531Y0279346D02*
X0175170D01*
X0150500Y0279378D02*
X0150531Y0279346D01*
X0175170D02*
X0175239Y0279277D01*
X0174351Y0287252D02*
X0174846Y0286757D01*
X0150500Y0287252D02*
X0174351D01*
X0186239Y0310757D02*
X0195500D01*
X0114804Y0360196D02*
Y0375117D01*
Y0360196D02*
X0140504Y0334496D01*
X0104883Y0360117D02*
X0138347Y0326654D01*
X0150469D01*
X0104883Y0360117D02*
Y0375117D01*
X0114421Y0375500D02*
X0114804Y0375117D01*
X0104500Y0375500D02*
X0104883Y0375117D01*
X0182657Y0389784D02*
X0185358Y0387082D01*
Y0383587D02*
X0185390Y0383555D01*
X0185358Y0383587D02*
Y0387082D01*
X0185390Y0383555D02*
X0188083D01*
X0140197Y0253303D02*
Y0273441D01*
X0140165Y0273472D02*
X0140197Y0273441D01*
X0194744Y0300300D02*
Y0302915D01*
X0150500Y0295126D02*
X0189570D01*
X0194744Y0302915D02*
X0195106Y0303277D01*
X0195500D01*
D27*
X0123050Y0138500D02*
X0138692D01*
X0112000Y0127450D02*
X0123050Y0138500D01*
X0142500Y0142308D02*
Y0148192D01*
X0138692Y0138500D02*
X0142500Y0142308D01*
X0111804Y0127354D02*
X0111950Y0127500D01*
X0108551Y0127354D02*
X0111804D01*
X0106947Y0125750D02*
X0108551Y0127354D01*
X0060118Y0125750D02*
X0106947D01*
X0058368Y0127500D02*
X0060118Y0125750D01*
X0029135Y0127500D02*
X0058368D01*
X0146308Y0152000D02*
X0179550D01*
X0195000Y0167450D01*
X0215974Y0147631D02*
X0216001Y0147604D01*
X0214754Y0147631D02*
X0215974D01*
X0182186Y0139000D02*
X0190687Y0147500D01*
X0214623D02*
X0214754Y0147631D01*
X0190687Y0147500D02*
X0214623D01*
X0142500Y0148192D02*
X0146308Y0152000D01*
X0104469Y0136000D02*
X0116119Y0147650D01*
X0075500Y0136000D02*
X0104469D01*
X0116119Y0147650D02*
X0131500D01*
X0161500Y0139000D02*
X0182186D01*
D28*
X0185126Y0341500D02*
X0186701D01*
X0185126D02*
Y0356626D01*
X0188500Y0360000D01*
X0154686Y0354000D02*
X0166000D01*
X0136500Y0372186D02*
X0154686Y0354000D01*
X0136500Y0372186D02*
Y0373362D01*
X0134500Y0375362D02*
X0136500Y0373362D01*
X0134500Y0375362D02*
Y0375633D01*
X0203295Y0342347D02*
Y0346921D01*
X0206374Y0350000D01*
X0200874Y0341500D02*
X0202449D01*
X0203295Y0342347D01*
X0075265Y0342924D02*
Y0369336D01*
Y0342924D02*
X0078862Y0339327D01*
X0075265Y0369336D02*
X0089429Y0383500D01*
X0078862Y0334618D02*
X0078980Y0334500D01*
X0078862Y0334618D02*
Y0339327D01*
X0194055Y0383555D02*
X0200500Y0390000D01*
X0228571D01*
X0188083Y0383555D02*
X0194055D01*
X0124309Y0375691D02*
X0124500Y0375500D01*
X0124309Y0375691D02*
Y0376926D01*
X0089429Y0383500D02*
X0117735D01*
X0124309Y0376926D01*
X0206374Y0350000D02*
X0224500D01*
X0239500Y0365000D01*
X0226661Y0366661D02*
Y0376661D01*
X0188500Y0360000D02*
X0220000D01*
X0226661Y0366661D01*
Y0376661D02*
X0227000Y0377000D01*
X0239500Y0365000D02*
Y0394690D01*
X0237190Y0397000D02*
X0239500Y0394690D01*
X0237000Y0397000D02*
X0237190D01*
X0235353D02*
X0237000D01*
X0231500Y0392929D02*
Y0393147D01*
X0235353Y0397000D01*
X0228571Y0390000D02*
X0231500Y0392929D01*
D29*
X0150500Y0253000D02*
D03*
X0140500D02*
D03*
X0130500D02*
D03*
D30*
X0120500D02*
D03*
D31*
X0086122Y0060874D02*
D03*
X0038878D02*
D03*
X0086878Y0108905D02*
D03*
X0038878D02*
D03*
X0062500Y0053000D02*
D03*
X0251472Y0060874D02*
D03*
X0204228D02*
D03*
X0252228Y0108905D02*
D03*
X0204228D02*
D03*
X0227850Y0053000D02*
D03*
X0168797Y0060874D02*
D03*
X0121553D02*
D03*
X0169553Y0108905D02*
D03*
X0121553D02*
D03*
X0145175Y0053000D02*
D03*
D32*
X0216500Y0167650D02*
D03*
Y0157650D02*
D03*
Y0147650D02*
D03*
X0131500Y0167650D02*
D03*
Y0157650D02*
D03*
Y0147650D02*
D03*
X0045500Y0167650D02*
D03*
Y0157650D02*
D03*
Y0147650D02*
D03*
D33*
X0218500Y0230000D02*
D03*
Y0250000D02*
D03*
Y0290000D02*
D03*
Y0270000D02*
D03*
Y0249950D02*
D03*
Y0290000D02*
D03*
Y0270000D02*
D03*
X0049500Y0292000D02*
D03*
Y0272000D02*
D03*
Y0232000D02*
D03*
Y0252000D02*
D03*
Y0272050D02*
D03*
Y0232000D02*
D03*
Y0252000D02*
D03*
X0218000Y0336500D02*
D03*
Y0316500D02*
D03*
X0049000Y0381450D02*
D03*
Y0361450D02*
D03*
Y0321450D02*
D03*
Y0341450D02*
D03*
Y0361500D02*
D03*
Y0321450D02*
D03*
Y0341450D02*
D03*
D34*
X0144500Y0375500D02*
D03*
X0134500Y0375633D02*
D03*
X0124500Y0375500D02*
D03*
X0114421D02*
D03*
X0104500D02*
D03*
D35*
X0094500D02*
D03*
D36*
X0112000Y0127450D02*
D03*
Y0167450D02*
D03*
X0195000D02*
D03*
Y0127450D02*
D03*
X0029000Y0127500D02*
D03*
Y0167500D02*
D03*
D37*
X0162756Y0210000D02*
D03*
X0114755Y0209500D02*
D03*
X0162756Y0193500D02*
D03*
X0114755Y0193000D02*
D03*
X0247756Y0193500D02*
D03*
X0199756Y0193000D02*
D03*
X0247756Y0210000D02*
D03*
X0199756Y0209500D02*
D03*
X0076755Y0210500D02*
D03*
X0028756Y0210000D02*
D03*
X0076755Y0194000D02*
D03*
X0028756Y0193500D02*
D03*
D38*
X0151500Y0139000D02*
D03*
X0236500Y0139500D02*
D03*
X0065500Y0136000D02*
D03*
D39*
X0161500Y0139000D02*
D03*
Y0169000D02*
D03*
X0151500D02*
D03*
X0246500Y0139500D02*
D03*
Y0169500D02*
D03*
X0236500D02*
D03*
X0075500Y0136000D02*
D03*
Y0166000D02*
D03*
X0065500D02*
D03*
D40*
X0165330Y0023000D02*
D03*
X0125380D02*
D03*
X0145380D02*
D03*
X0248710D02*
D03*
X0208760D02*
D03*
X0228760D02*
D03*
X0081950D02*
D03*
X0042000D02*
D03*
X0062000D02*
D03*
D41*
X0237000Y0397000D02*
D03*
D42*
X0252000Y0377000D02*
D03*
X0227000D02*
D03*
D43*
X0166000Y0354000D02*
D03*
X0172500Y0318500D02*
D03*
X0163500Y0326000D02*
D03*
X0173099Y0346099D02*
D03*
X0083796Y0345000D02*
D03*
X0205000Y0310500D02*
D03*
M02*
