M48
;Layer_Color=9474304
;FILE_FORMAT=2:5
INCH
;TYPE=PLATED
T01F00S00C0.02800
T02F00S00C0.03100
T03F00S00C0.03200
T04F00S00C0.03500
T05F00S00C0.03543
T06F00S00C0.03937
T07F00S00C0.04000
T08F00S00C0.04500
T10F00S00C0.05118
T11F00S00C0.05512
%
T01
X0181296Y0421500
X0270599Y0422599
X0263500Y0430500
X0261000Y0402500
X0270000Y0395000
X0302500Y0387000
T02
X0334000Y0216000
X0344000
Y0246000
X0334000
X0259000Y0245500
X0249000
Y0215500
X0259000
X0173000Y0212500
X0163000
Y0242500
X0173000
T03
X0314000Y0224150
Y0234150
Y0244150
X0229000
Y0234150
Y0224150
X0143000
Y0234150
Y0244150
T04
X0345255Y0270000
Y0286500
X0297255Y0286000
Y0269500
X0260256Y0270000
Y0286500
X0212256Y0286000
Y0269500
X0174256Y0270500
Y0287000
X0126256Y0286500
Y0270000
T05
X0218000Y0329500
X0228000
X0238000
X0248000
T06
X0192000Y0452000
X0202000
X0211921
X0222000
X0232000Y0452133
X0242000Y0452000
T07
X0209500Y0203950
Y0243950
X0292500
Y0203950
X0126500Y0204000
Y0244000
T08
X0136378Y0137374
X0160000Y0129500
X0183622Y0137374
X0219053
X0242675Y0129500
X0266297Y0137374
X0301728
X0325350Y0129500
X0348972Y0137374
X0349728Y0185406
X0301728
X0267053
X0219053
X0184378
X0136378
T10
X0139500Y0099500
X0159500
X0179450
X0222880
X0242880
X0262830
X0306260
X0326260
X0346210
T11
X0316000Y0306500
X0147000Y0308500
Y0328500
Y0348500
Y0348550
Y0368500
X0146500Y0397950
Y0417950
Y0437950
Y0438000
Y0457950
X0315500Y0413000
Y0393000
X0316000Y0366500
Y0346500
Y0326500
Y0326450
M30
